# xmcd CD database file generated by OrangeCD 6.1
#
# Track frame offsets:
#	150
#	13675
#	33905
#	53965
#	71460
#	89447
#	96115
#	113302
#	124892
#	146790
#	170075
#	182032
#	200157
#	217875
#
# Disc length: 3230 seconds
#
# Revision: 1
# Processed by: cddbd v1.5.2PL0 Copyright (c) Steve Scherf et al.
# Submitted via: OrangeCD 6.1
#
DISCID=c70c9c0e
DTITLE=Lightning Hopkins - Forever Gold
DYEAR=1999
DGENRE=Blues
TTITLE0=Mojo Hand                                 #
TTITLE1=Glory Be
TTITLE2=Shine On Moon                           #
TTITLE3=I'm Leaving You Now
TTITLE4=Bring Me My Shotgun
TTITLE5=Just Pickin'
TTITLE6=Santa   #
TTITLE7=Sometimes She Will
TTITLE8=Awful Dreams
TTITLE9=Last Night
TTITLE10=Have You Ever Loved A Woman
TTITLE11=Shake That Thing
TTITLE12=Black Mare Trot
TTITLE13=Walk A lLong Time
EXTD=
EXTT0=
EXTT1=
EXTT2=
EXTT3=
EXTT4=
EXTT5=
EXTT6=
EXTT7=
EXTT8=
EXTT9=
EXTT10=
EXTT11=
EXTT12=
EXTT13=
PLAYORDER=
